<svg width="50" height="50" viewBox="0 0 50 50" fill="none" xmlns="http://www.w3.org/2000/svg">
<g clip-path="url(#clip0_1_2)">
<path d="M25 12.5V25L33.3333 29.1667M45.8333 25C45.8333 36.5059 36.5059 45.8333 25 45.8333C13.4941 45.8333 4.16666 36.5059 4.16666 25C4.16666 13.4941 13.4941 4.16666 25 4.16666C36.5059 4.16666 45.8333 13.4941 45.8333 25Z" stroke="#1E1E1E" stroke-width="4" stroke-linecap="round" stroke-linejoin="round"/>
<mask id="mask0_1_2" style="mask-type:alpha" maskUnits="userSpaceOnUse" x="0" y="0" width="50" height="50">
<path d="M25 12.5V25L33.3333 29.1667M45.8333 25C45.8333 36.5059 36.5059 45.8333 25 45.8333C13.4941 45.8333 4.16666 36.5059 4.16666 25C4.16666 13.4941 13.4941 4.16666 25 4.16666C36.5059 4.16666 45.8333 13.4941 45.8333 25Z" stroke="#1E1E1E" stroke-width="4" stroke-linecap="round" stroke-linejoin="round"/>
</mask>
<g mask="url(#mask0_1_2)">
<path opacity="0.6" d="M23.9583 35.9375L-14.0625 74.4792L104.687 40.1042L23.9583 35.9375Z" fill="#00C0E8"/>
<path opacity="0.6" d="M26.5625 39.5833L-11.4583 78.125L107.292 43.75L26.5625 39.5833Z" fill="#00C0E8"/>
<path opacity="0.6" d="M6.99044 27.5315L-46.6889 34.572L68.1167 80.4289L6.99044 27.5315Z" fill="#34C759"/>
<path opacity="0.6" d="M8.26832 33.3469L-45.8333 35.3604L64.2056 91.7042L8.26832 33.3469Z" fill="#34C759"/>
<path opacity="0.6" d="M31.8486 32.909L67.6123 73.5538L41.6994 -47.3252L31.8486 32.909Z" fill="#FF8D28"/>
<path opacity="0.6" d="M35.9648 28.6068L67.7901 72.4039L53.2408 -50.3622L35.9648 28.6068Z" fill="#FF8D28"/>
<path opacity="0.6" d="M35.7301 19.0212L88.214 5.73658L-31.1758 -26.3457L35.7301 19.0212Z" fill="#FFCC00"/>
<path opacity="0.6" d="M33.7793 13.3957L87.2719 5.05387L-28.6134 -38.0018L33.7793 13.3957Z" fill="#FFCC00"/>
<path opacity="0.6" d="M22.9925 14.0379L51.0035 -32.2917L-56.491 28.7669L22.9925 14.0379Z" fill="#00C8B3"/>
<path opacity="0.6" d="M17.6517 11.4057L49.8534 -32.1155L-62.8576 18.6726L17.6517 11.4057Z" fill="#00C8B3"/>
<path opacity="0.6" d="M11.8961 17.1872L-26.7829 -20.6939L8.02164 97.931L11.8961 17.1872Z" fill="#FF2D55"/>
<path opacity="0.6" d="M8.11026 21.7828L-26.8749 -19.534L-3.26288 101.815L8.11026 21.7828Z" fill="#FF2D55"/>
<path opacity="0.6" d="M8.11026 21.7828L-26.8749 -19.534L-3.26288 101.815L8.11026 21.7828Z" fill="#FF2D55"/>
<path opacity="0.6" d="M8.11026 21.7828L-26.8749 -19.534L-3.26288 101.815L8.11026 21.7828Z" fill="#FF2D55"/>
<path d="M23.1366 12.0601L23.0946 12.1441C22.9776 12.3782 22.9167 12.6362 22.9167 12.8979C22.9167 13.8287 23.6713 14.5833 24.6021 14.5833H25.3979C26.3287 14.5833 27.0833 13.8287 27.0833 12.8979C27.0833 12.6362 27.0224 12.3782 26.9054 12.1441L26.8634 12.0601C26.0956 10.5246 23.9044 10.5246 23.1366 12.0601Z" fill="#1E1E1E" stroke="#1E1E1E"/>
<path d="M30.7292 24.4792L31.7708 33.8542L38.0208 27.0833L30.7292 24.4792Z" fill="#1E1E1E"/>
<path opacity="0.4" d="M11.9792 12.8472L13.5417 25.1736L30.2083 38.4549L39.5833 26.0417L30.7292 8.33334L11.9792 12.8472Z" fill="#6155F5"/>
</g>
</g>
<defs>
<clipPath id="clip0_1_2">
<rect width="50" height="50" fill="white"/>
</clipPath>
</defs>
</svg>
